<svg width="229" height="20" viewBox="0 0 229 20" fill="none" xmlns="http://www.w3.org/2000/svg">
<g clip-path="url(#clip0_14_823)">
<path d="M5.05103 20H0C2.41657 18.7921 3.24851 15.2475 3.24851 15.2475C2.4958 18.7327 5.05103 20 5.05103 20ZM9.46821 11.3861L6.79414 2.83168L7.56665 0H10.6765L16.8566 19.7228L17.2131 20H11.8452L12.1621 19.7426L10.7161 15.2277" fill="white" style="fill:white;fill-opacity:1;"/>
<path d="M31.6532 19.703L32.0295 20H26.7012L27.1171 19.703V0.29703L26.7012 0H31.6532V19.703ZM33.1388 9.72277C35.8128 9.22772 36.4467 6.67327 36.4467 6.67327V12.8317C36.4269 12.6337 35.8128 10.198 33.1388 9.72277ZM33.6538 0H39.715V5.84158C39.4971 4.61386 38.4671 0.39604 33.6538 0Z" fill="white" style="fill:white;fill-opacity:1;"/>
<path d="M47.1229 20H42.1709L42.5671 19.703V0.29703L42.1709 0H47.1229V20ZM48.5887 9.72277C51.2628 9.22772 51.8966 6.67327 51.8966 6.67327V12.8317C51.8768 12.6337 51.2628 10.198 48.5887 9.72277ZM49.1235 0H55.1451V5.84158C54.947 4.61386 53.8972 0.39604 49.1235 0ZM55.9572 13.7822V20H49.1235C50.5299 19.802 55.4819 18.7129 55.9572 13.7822Z" fill="white" style="fill:white;fill-opacity:1;"/>
<path d="M63.4842 20H58.5322L58.9284 19.703V0.29703L58.5322 0H63.4842V20ZM64.95 9.72277C67.6241 9.22772 68.2579 6.67327 68.2579 6.67327V12.8317C68.2381 12.6337 67.6241 10.198 64.95 9.72277ZM65.4848 0H71.5064V5.84158C71.3084 4.61386 70.2586 0.39604 65.4848 0ZM72.2988 13.7822V20H65.465C66.8714 19.802 71.8234 18.7129 72.2988 13.7822Z" fill="white" style="fill:white;fill-opacity:1;"/>
<path d="M74.874 20L75.29 19.703V0.29703L74.874 0H80.2024L79.8062 0.277228V20H74.874ZM82.5001 20H88.5613V13.901C88.1454 18.396 83.7678 19.8218 82.5001 20Z" fill="white" style="fill:white;fill-opacity:1;"/>
<path d="M113.52 16.5743C113.52 16.5743 111.875 20 106.745 20C104.547 20 98.0693 18.9505 98.0693 10C98.0693 1.92079 103.695 0 105.973 0C104.19 0.910891 103.18 2.23762 103.18 7.56436V10.5941C103.18 11.3663 103.239 12.297 103.358 13.2673C103.556 14.9703 104.507 17.3465 106.508 18.0594C110.628 19.5644 113.48 16.6139 113.539 16.5545L113.52 16.5743ZM113.242 7.08911V7.64356C113.242 7.64356 112.291 3.0495 108.548 0.277228C108.548 0.277228 112.569 2.35644 113.203 0L113.242 7.08911Z" fill="white" style="fill:white;fill-opacity:1;"/>
<path d="M123.78 0C123.245 0.356436 121.086 1.14852 120.927 5.82178C120.927 5.82178 120.848 8.07921 120.848 10C120.848 11.9208 120.927 14.0792 120.927 14.0792C121.086 18.8713 123.007 19.4653 123.76 20C122.056 20 115.777 18.6139 115.777 10C115.777 1.38614 122.056 0 123.78 0ZM125.662 0C126.256 0.39604 128.355 1.14852 128.514 5.82178C128.514 5.82178 128.593 8.07921 128.593 10C128.593 11.9208 128.514 14.0792 128.514 14.0792C128.336 18.8713 126.434 19.4653 125.681 20C127.385 20 133.664 18.6139 133.664 10C133.664 1.38614 127.385 0 125.662 0Z" fill="white" style="fill:white;fill-opacity:1;"/>
<path d="M139.25 20H134.654C136.972 18.7921 137.051 14.9109 137.051 14.9109C137.269 18.4752 139.25 20 139.25 20ZM146.48 15.2079L148.322 12.6535L145.727 20H143.211L136.675 0.356436L136.12 0H141.448L146.48 15.2079ZM155.492 19.703V0.277228L155.888 0H152.561L150.976 4.65346V19.6832L150.56 19.9802H155.908L155.492 19.6832V19.703Z" fill="white" style="fill:white;fill-opacity:1;"/>
<path d="M163.732 19.703L164.109 20H158.78L159.196 19.703V0.29703L158.78 0H163.732V19.703ZM172.844 6.05941C172.844 11.3267 167.951 12.1584 165.872 12.1584C166.466 11.8416 167.951 11.4851 168.07 8.55446C168.07 8.55446 168.149 7.30693 168.149 6.07921C168.149 4.93069 168.07 3.54455 168.07 3.54455C167.971 0.712871 166.327 0.257426 165.872 0.019802C169.14 0.019802 172.844 1.42574 172.844 6.07921V6.05941Z" fill="white" style="fill:white;fill-opacity:1;"/>
<path d="M176.885 20H171.834C174.251 18.7921 175.082 15.2475 175.082 15.2475C174.33 18.7327 176.885 20 176.885 20ZM181.302 11.3861L178.628 2.83168L179.401 0H182.51L188.691 19.7228L189.047 20H183.679L183.996 19.7426L182.55 15.2277" fill="white" style="fill:white;fill-opacity:1;"/>
<path d="M206.914 20H203.884L192.019 0.277228L191.365 0H197.288L206.122 15.0099L206.914 11.8614V20ZM196.634 20H191.662C194.138 18.5545 194.237 13.9802 194.237 13.9802C194.435 18.495 196.634 20 196.634 20ZM206.914 5.54455C206.736 1.60396 204.557 0 204.557 0H209.49C207.033 1.28713 206.914 5.54455 206.914 5.54455Z" fill="white" style="fill:white;fill-opacity:1;"/>
<path d="M222.938 20H217.531L217.927 19.7228V10.0792L212.381 0.29703L211.965 0H217.788L217.491 0.217822L222.522 9.06931V19.703L222.938 20ZM224.642 5.16832C226.088 0.831683 223.988 0 223.988 0H228.98C226.405 1.28713 224.622 5.16832 224.622 5.16832H224.642Z" fill="white" style="fill:white;fill-opacity:1;"/>
</g>
<defs>
<clipPath id="clip0_14_823">
<rect width="229" height="20" fill="white" style="fill:white;fill-opacity:1;"/>
</clipPath>
</defs>
</svg>
